<?xml version="1.0" standalone="no"?>
<!DOCTYPE svg PUBLIC "-//W3C//DTD SVG 20010904//EN"
 "http://www.w3.org/TR/2001/REC-SVG-20010904/DTD/svg10.dtd">
<svg version="1.0" xmlns="http://www.w3.org/2000/svg"
 width="512.000000pt" height="512.000000pt" viewBox="0 0 512.000000 512.000000"
 preserveAspectRatio="xMidYMid meet">
<metadata>
Created by potrace 1.14, written by Peter Selinger 2001-2017
</metadata>
<g transform="translate(0.000000,512.000000) scale(0.100000,-0.100000)"
fill="#000000" stroke="none">
<path d="M3643 5101 c-23 -11 -49 -31 -58 -45 -36 -54 -208 -482 -213 -528
-11 -113 106 -199 211 -154 60 25 82 61 183 298 85 201 98 241 99 290 0 60
-17 94 -66 130 -38 28 -106 32 -156 9z m121 -82 c19 -15 26 -30 26 -54 0 -42
-176 -467 -207 -501 -47 -51 -133 -18 -133 52 0 45 182 482 211 507 28 23 70
22 103 -4z"/>
<path d="M679 4835 c-164 -51 -285 -192 -309 -360 -13 -96 -13 -1400 1 -1485
27 -173 150 -312 315 -355 40 -10 107 -15 214 -15 108 0 160 -4 168 -12 9 -9
12 -70 12 -212 0 -230 7 -257 72 -289 69 -34 81 -26 329 218 285 281 310 295
534 295 l105 0 0 -702 c0 -387 4 -731 9 -765 18 -123 86 -231 187 -298 102
-68 105 -68 554 -74 l405 -6 69 -33 c60 -28 96 -60 291 -252 154 -153 232
-223 254 -230 43 -12 98 7 125 43 20 26 21 43 24 240 2 130 7 216 14 224 8 10
51 13 162 13 95 0 173 6 211 14 172 41 299 182 325 361 13 93 13 1387 0 1480
-19 127 -84 233 -186 300 -111 74 -60 69 -851 75 l-713 5 -2 745 -3 745 -23
57 c-50 124 -137 214 -249 259 l-58 24 -970 2 c-816 2 -977 0 -1016 -12z
m1931 -66 c125 -20 218 -88 272 -197 l33 -67 0 -610 0 -610 -26 -55 c-34 -72
-71 -115 -134 -156 -86 -55 -106 -57 -541 -63 l-400 -6 -80 -39 c-71 -36 -100
-60 -300 -258 -121 -120 -227 -218 -235 -218 -35 0 -39 21 -39 222 0 293 -3
298 -205 298 -234 1 -318 24 -407 111 -54 54 -81 103 -97 177 -7 36 -11 234
-11 600 0 611 1 624 66 719 58 84 145 138 248 153 82 12 1781 11 1856 -1z
m-2020 -1779 c82 -42 128 -50 287 -50 83 0 163 -4 177 -10 26 -9 26 -10 26
-122 l0 -113 -177 3 c-144 3 -186 7 -228 23 -71 27 -128 71 -168 132 -43 66
-56 103 -64 191 l-6 71 55 -51 c30 -29 74 -62 98 -74z m2330 75 l0 -45 -47 0
-47 0 44 45 c24 25 45 45 47 45 2 0 3 -20 3 -45z m-669 -177 c-31 -31 -66 -80
-84 -119 l-32 -66 -145 -6 c-241 -9 -267 -24 -556 -309 -121 -120 -227 -218
-235 -218 -32 0 -39 23 -39 137 0 96 2 112 15 107 8 -4 32 -3 52 1 32 6 73 42
268 234 244 241 277 266 378 281 29 4 137 8 241 9 l189 1 -52 -52z m657 -40
c18 -18 14 -56 -7 -68 -12 -6 -96 -10 -203 -10 -204 0 -240 -9 -290 -68 -38
-45 -48 -110 -48 -302 0 -159 -1 -170 -20 -180 -14 -8 -26 -8 -41 0 -20 11
-20 18 -17 228 3 200 5 220 25 257 35 65 107 124 174 143 52 15 412 15 427 0z
m570 -254 c23 -16 522 -1000 522 -1029 0 -29 -47 -65 -83 -65 -42 0 -49 8
-112 129 l-50 96 -310 0 -310 0 -51 -100 c-55 -105 -81 -135 -121 -135 -30 0
-83 50 -83 79 0 11 113 246 250 521 252 503 260 517 310 519 9 1 26 -6 38 -15z"/>
<path d="M1600 4519 c-141 -16 -255 -73 -366 -184 -203 -200 -248 -476 -121
-735 32 -65 59 -102 117 -160 191 -191 468 -243 712 -133 l58 26 36 -32 c44
-39 73 -51 125 -51 55 0 102 22 130 61 19 27 24 47 24 95 0 58 -3 65 -41 111
l-42 49 23 45 c43 84 59 157 59 274 1 79 -4 127 -18 170 -57 186 -173 324
-341 405 -117 56 -228 74 -355 59z m191 -83 c106 -23 203 -78 286 -161 171
-174 211 -412 107 -632 -19 -39 -34 -79 -34 -87 0 -9 16 -33 35 -54 52 -58 65
-88 53 -123 -12 -36 -35 -49 -83 -49 -29 0 -45 9 -84 45 -26 25 -53 45 -58 45
-6 0 -39 -13 -74 -30 -91 -42 -171 -60 -264 -60 -286 0 -534 236 -552 525 -10
159 46 304 162 421 142 142 321 199 506 160z"/>
<path d="M1555 4272 c-307 -106 -365 -519 -98 -703 118 -82 317 -93 394 -23
29 26 24 40 -33 100 -59 63 -66 98 -28 139 39 41 77 34 135 -25 68 -69 95 -69
124 3 29 74 35 122 21 196 -28 153 -132 272 -276 316 -64 19 -176 18 -239 -3z
m225 -74 c123 -38 220 -170 220 -301 0 -78 -11 -87 -54 -49 -63 55 -153 53
-211 -5 -34 -34 -45 -63 -45 -114 0 -46 11 -72 48 -111 14 -15 23 -30 20 -34
-3 -3 -38 -5 -77 -5 -128 0 -241 73 -294 189 -30 66 -30 188 0 253 69 152 233
225 393 177z"/>
<path d="M3413 2288 c-6 -7 -49 -88 -97 -181 -72 -139 -85 -171 -76 -187 10
-19 22 -20 200 -20 177 0 190 1 200 19 8 16 -5 49 -71 178 -45 87 -88 168 -95
181 -16 24 -46 29 -61 10z"/>
<path d="M4360 4610 c-19 -10 -119 -103 -221 -207 -157 -157 -189 -195 -198
-231 -36 -133 110 -242 234 -174 37 20 394 387 404 415 53 138 -90 266 -219
197z m145 -103 c9 -22 10 -39 3 -57 -12 -33 -354 -376 -390 -391 -52 -21 -108
21 -108 83 0 26 351 384 394 403 41 18 84 1 101 -38z"/>
<path d="M4850 3895 c-89 -33 -446 -187 -467 -200 -30 -20 -63 -86 -63 -126 0
-47 36 -115 74 -139 62 -38 101 -29 360 79 130 55 247 106 260 115 39 25 69
98 61 148 -18 108 -119 163 -225 123z m129 -91 c26 -33 27 -75 4 -103 -15 -17
-336 -160 -468 -207 -45 -17 -88 -5 -105 27 -15 28 -12 75 8 98 24 29 457 210
504 211 28 0 41 -6 57 -26z"/>
<path d="M362 1610 c-128 -54 -243 -105 -256 -114 -39 -25 -69 -98 -61 -148 9
-54 46 -104 92 -123 69 -29 72 -28 425 121 199 85 226 106 235 188 7 57 -25
127 -71 156 -63 38 -107 29 -364 -80z m317 15 c45 -23 56 -84 24 -124 -23 -26
-463 -211 -504 -211 -63 0 -102 80 -62 129 18 21 468 217 506 220 4 1 21 -6
36 -14z"/>
<path d="M994 1140 c-48 -10 -74 -33 -271 -232 -194 -196 -203 -211 -190 -294
16 -98 128 -153 221 -109 18 9 119 102 223 208 210 211 225 235 203 316 -12
44 -65 97 -108 107 -15 3 -31 7 -37 8 -5 1 -24 0 -41 -4z m87 -99 c54 -54 48
-64 -153 -269 -101 -101 -196 -190 -212 -197 -62 -27 -128 33 -104 95 10 28
327 352 373 381 41 26 62 24 96 -10z"/>
<path d="M1523 739 c-23 -11 -51 -35 -62 -52 -10 -18 -61 -131 -112 -252 -121
-286 -124 -335 -26 -409 55 -41 175 -19 213 39 35 53 207 482 212 527 6 63
-26 120 -83 148 -53 26 -89 25 -142 -1z m125 -79 c15 -14 22 -33 22 -56 0 -45
-182 -482 -211 -506 -49 -41 -129 -5 -129 58 0 44 183 483 211 507 29 23 80
22 107 -3z"/>
</g>
</svg>
