<svg id="visual" viewBox="0 0 900 600" width="900" height="600" xmlns="http://www.w3.org/2000/svg" xmlns:xlink="http://www.w3.org/1999/xlink" version="1.1"><path d="M0 438L18.8 443.5C37.7 449 75.3 460 112.8 458.2C150.3 456.3 187.7 441.7 225.2 441.3C262.7 441 300.3 455 337.8 462.3C375.3 469.7 412.7 470.3 450.2 464C487.7 457.7 525.3 444.3 562.8 440C600.3 435.7 637.7 440.3 675.2 448.8C712.7 457.3 750.3 469.7 787.8 467.2C825.3 464.7 862.7 447.3 881.3 438.7L900 430L900 601L881.3 601C862.7 601 825.3 601 787.8 601C750.3 601 712.7 601 675.2 601C637.7 601 600.3 601 562.8 601C525.3 601 487.7 601 450.2 601C412.7 601 375.3 601 337.8 601C300.3 601 262.7 601 225.2 601C187.7 601 150.3 601 112.8 601C75.3 601 37.7 601 18.8 601L0 601Z" fill="#e4f8ce"></path><path d="M0 507L18.8 502.2C37.7 497.3 75.3 487.7 112.8 486C150.3 484.3 187.7 490.7 225.2 492.5C262.7 494.3 300.3 491.7 337.8 495.2C375.3 498.7 412.7 508.3 450.2 513.3C487.7 518.3 525.3 518.7 562.8 518.7C600.3 518.7 637.7 518.3 675.2 511.7C712.7 505 750.3 492 787.8 488.3C825.3 484.7 862.7 490.3 881.3 493.2L900 496L900 601L881.3 601C862.7 601 825.3 601 787.8 601C750.3 601 712.7 601 675.2 601C637.7 601 600.3 601 562.8 601C525.3 601 487.7 601 450.2 601C412.7 601 375.3 601 337.8 601C300.3 601 262.7 601 225.2 601C187.7 601 150.3 601 112.8 601C75.3 601 37.7 601 18.8 601L0 601Z" fill="#aed190"></path><path d="M0 524L18.8 528.5C37.7 533 75.3 542 112.8 543.2C150.3 544.3 187.7 537.7 225.2 535.3C262.7 533 300.3 535 337.8 538.2C375.3 541.3 412.7 545.7 450.2 549C487.7 552.3 525.3 554.7 562.8 551.3C600.3 548 637.7 539 675.2 537.8C712.7 536.7 750.3 543.3 787.8 545.3C825.3 547.3 862.7 544.7 881.3 543.3L900 542L900 601L881.3 601C862.7 601 825.3 601 787.8 601C750.3 601 712.7 601 675.2 601C637.7 601 600.3 601 562.8 601C525.3 601 487.7 601 450.2 601C412.7 601 375.3 601 337.8 601C300.3 601 262.7 601 225.2 601C187.7 601 150.3 601 112.8 601C75.3 601 37.7 601 18.8 601L0 601Z" fill="#77ab54"></path></svg>